<svg width="56" height="45" viewBox="0 0 56 45" fill="none" xmlns="http://www.w3.org/2000/svg">
<path d="M23.7834 4.16617L2.85748 35.9812C2.42603 36.6616 2.19775 37.4331 2.19533 38.2188C2.19292 39.0046 2.41645 39.7772 2.84371 40.4599C3.27096 41.1425 3.88703 41.7114 4.63064 42.1098C5.37424 42.5083 6.21945 42.7225 7.08218 42.7312H48.9339C49.7967 42.7225 50.6419 42.5083 51.3855 42.1098C52.1291 41.7114 52.7452 41.1425 53.1724 40.4599C53.5997 39.7772 53.8232 39.0046 53.8208 38.2188C53.8184 37.4331 53.5901 36.6616 53.1587 35.9812L32.2328 4.16617C31.7923 3.50491 31.1722 2.95819 30.4322 2.57876C29.6922 2.19933 28.8573 2 28.0081 2C27.1588 2 26.3239 2.19933 25.5839 2.57876C24.8439 2.95819 24.2238 3.50491 23.7834 4.16617V4.16617Z" fill="white" stroke="#B3B3B3" stroke-width="3" stroke-linecap="round" stroke-linejoin="round"/>
<path d="M0 36H56V40.5C56 42.9853 53.9853 45 51.5 45H4.5C2.01472 45 0 42.9853 0 40.5V36Z" fill="white"/>
</svg>
